<svg data-v-423bf9ae="" xmlns="http://www.w3.org/2000/svg" viewBox="0 0 398.38708860362294 60" class="font"><!----><!----><!----><g data-v-423bf9ae="" id="9379c1df-b17b-406e-8086-ac0728e7e887" fill="black" transform="matrix(6.4516127709088735,0,0,6.4516127709088735,-4.903221982078776,-8.58064466613554)"><path d="M1.53 10.50L0.76 10.50L0.76 1.33L1.53 1.33L1.53 5.59L5.47 5.59L5.47 1.33L6.24 1.33L6.24 10.50L5.47 10.50L5.47 6.30L1.53 6.30L1.53 10.50ZM7.83 7.20Q7.83 3.77 10.50 3.77Q13.17 3.77 13.17 7.20Q13.17 10.63 10.50 10.63Q7.83 10.63 7.83 7.20ZM10.50 4.49Q8.62 4.49 8.62 7.20Q8.62 9.90 10.50 9.90Q12.38 9.90 12.38 7.20Q12.38 4.49 10.50 4.49ZM14.49 3.85L15.19 3.85L15.23 4.27Q15.93 3.77 16.31 3.77L16.31 3.77Q17.23 3.77 17.58 4.37L17.58 4.37Q18.37 3.77 18.96 3.77L18.96 3.77Q19.87 3.77 20.20 4.33Q20.54 4.89 20.54 6.05L20.54 6.05L20.54 10.50L19.80 10.50L19.80 6.05Q19.80 5.25 19.63 4.87Q19.46 4.48 18.98 4.48Q18.51 4.48 17.81 4.93L17.81 4.93Q17.89 5.40 17.89 6.05L17.89 6.05L17.89 8.37L17.15 8.37L17.15 6.05Q17.15 5.25 16.98 4.87L16.98 4.87Q16.80 4.48 16.32 4.48Q15.85 4.48 15.23 4.93L15.23 4.93L15.23 10.50L14.49 10.50L14.49 3.85ZM21.94 7.18Q21.94 5.57 22.60 4.67Q23.27 3.77 24.54 3.77Q25.82 3.77 26.44 4.61Q27.06 5.45 27.06 6.85L27.06 6.85L27.02 7.55L22.74 7.55Q22.81 8.60 23.30 9.25Q23.79 9.90 24.65 9.90Q25.51 9.90 26.67 9.49L26.67 9.49L26.88 10.19Q25.75 10.63 24.75 10.63L24.75 10.63Q23.38 10.63 22.66 9.71Q21.94 8.79 21.94 7.18ZM24.60 4.48L24.60 4.48Q22.83 4.48 22.74 6.85L22.74 6.85L26.26 6.85Q26.26 4.48 24.60 4.48ZM37.97 10.50L35.94 10.50L35.94 1.33L38.09 1.33Q39.63 1.33 40.38 1.88Q41.13 2.44 41.13 3.71L41.13 3.71Q41.13 5.31 39.58 5.78L39.58 5.78Q40.50 5.99 40.94 6.48Q41.38 6.97 41.38 7.91L41.38 7.91Q41.38 9.39 40.54 9.95Q39.70 10.50 37.97 10.50L37.97 10.50ZM40.57 7.91L40.57 7.91Q40.57 6.20 38.25 6.20L38.25 6.20L36.71 6.20L36.71 9.81L37.97 9.81Q39.27 9.81 39.92 9.40Q40.57 8.99 40.57 7.91ZM39.59 2.27L39.59 2.27Q38.99 2.02 38.09 2.02L38.09 2.02L36.71 2.02L36.71 5.52L38.21 5.52Q39.09 5.52 39.70 5.12Q40.32 4.72 40.33 3.65Q40.35 2.59 39.59 2.27ZM44.59 4.55L43.27 4.55L43.27 3.85L45.33 3.85L45.36 4.66Q45.81 4.38 46.62 4.10Q47.43 3.82 48.05 3.77L48.05 3.77L48.05 4.59Q47.47 4.63 46.63 4.87Q45.78 5.11 45.36 5.36L45.36 5.36L45.36 9.80L47.60 9.80L47.60 10.50L43.27 10.50L43.27 9.80L44.59 9.80L44.59 4.55ZM49.94 7.18Q49.94 5.57 50.60 4.67Q51.27 3.77 52.54 3.77Q53.82 3.77 54.44 4.61Q55.06 5.45 55.06 6.85L55.06 6.85L55.02 7.55L50.74 7.55Q50.81 8.60 51.30 9.25Q51.79 9.90 52.65 9.90Q53.51 9.90 54.67 9.49L54.67 9.49L54.88 10.19Q53.75 10.63 52.75 10.63L52.75 10.63Q51.38 10.63 50.66 9.71Q49.94 8.79 49.94 7.18ZM52.60 4.48L52.60 4.48Q50.83 4.48 50.74 6.85L50.74 6.85L54.26 6.85Q54.26 4.48 52.60 4.48ZM61.05 9.83L61.78 3.85L62.51 3.85L61.71 10.50L60.23 10.50L59.51 7.60L59.46 7.60L58.73 10.50L57.26 10.50L56.49 3.85L57.22 3.85L57.95 9.83L58.20 9.83L59.14 6.45L59.86 6.45L60.80 9.83L61.05 9.83Z"></path></g><!----><!----></svg>